#!OML:ASF I:\salsa\salsa 7_09\Patient 1\Session 1\dancermale.ASF
:FULLY-SPECIFIED
:DEGREES
2172
root 16.0652 17.4777 -0.33143 -366.65 263.433 -350.38
lowerback -4.43764 3.60073 0.822396
upperback 2.3016 4.67687 1.40636
thorax 4.81334 2.31493 1.39235
lowerneck -3.73215 0.0503869 3.52471
upperneck 8.51674 0.229838 -5.62437
head 3.45645 -0.0210475 -2.49027
rclavicle -6.4605e-015 1.94809e-014
rhumerus -45.5534 8.22605 -106.935
rradius 101.062
rwrist 30.4431
rhand -33.7489 12.222
rfingers 7.12502
rthumb -6.93715 -17.6443
lclavicle -6.4605e-015 1.94809e-014
lhumerus -68.1143 -18.8563 104.605
lradius 106.945
lwrist 7.29152
lhand -26.7966 51.2183
lfingers 7.12502
lthumb -0.223641 1161.2
rfemur -25.7221 -2.41337 20.3976
rtibia 28.3693
rfoot -7.22931 5.88612
rtoes -19.2637
lfemur -8.97748 1.67077 -21.2678
ltibia 40.9663
lfoot 345.533 2.54556
ltoes -11.6734
2173
root 16.2012 17.4684 -0.274361 -368.447 264.692 -348.65
lowerback -4.27617 3.31749 1.00778
upperback 2.45629 4.28775 1.36205
thorax 4.90555 2.1277 1.20726
lowerneck -4.03405 -0.0668454 2.69679
upperneck 8.53136 0.0773069 -4.99771
head 3.49811 -0.101383 -2.13339
rclavicle 6.21202e-015 -1.07344e-014
rhumerus -45.6531 7.14658 -106.499
rradius 101.427
rwrist 30.3297
rhand -34.4862 12.4413
rfingers 7.12502
rthumb -7.64887 -17.4004
lclavicle 6.21202e-015 -1.07344e-014
lhumerus -66.2591 -19.1772 104.236
lradius 107.661
lwrist 7.54127
lhand -26.9157 51.443
lfingers 7.12502
lthumb -0.338707 1161.42
rfemur -25.8096 -2.84423 19.6793
rtibia 28.5069
rfoot -9.25427 4.65979
rtoes -15.0236
lfemur -8.03685 1.0327 -21.6444
ltibia 38.5633
lfoot 344.217 3.50928
ltoes -10.9076
2174
root 16.3231 17.4558 -0.225551 -373.005 266.085 -344.245
lowerback -4.22453 2.99396 1.16814
upperback 2.66775 3.83902 1.38978
thorax 5.11015 1.90825 1.11438
lowerneck -4.10983 -0.203016 2.47948
upperneck 8.39971 -0.112338 -4.7461
head 3.45472 -0.190671 -2.01467
rclavicle 3.37934e-014 -1.03368e-014
rhumerus -45.7919 6.03596 -105.956
rradius 101.812
rwrist 30.2228
rhand -35.1978 12.8295
rfingers 7.12502
rthumb -8.33565 -16.986
lclavicle 3.37934e-014 -1.03368e-014
lhumerus -64.23 -19.4722 103.943
lradius 108.303
lwrist 7.95882
lhand -27.1899 51.6658
lfingers 7.12502
lthumb -0.603546 1161.64
rfemur -25.2969 -1.50945 18.9544
rtibia 28.4063
rfoot -11.2916 0.267156
rtoes -15.1583
lfemur -6.95412 0.530925 -21.9104
ltibia 36.1158
lfoot 343.577 4.37974
ltoes -8.10339
2175
root 16.4391 17.4395 -0.17616 -382.238 267.334 -335.145
lowerback -4.22134 2.73627 1.44271
upperback 2.8334 3.47261 1.37331
thorax 5.30212 1.73544 0.919265
lowerneck -4.05157 -0.406153 2.22868
upperneck 8.13476 -0.385895 -4.55826
head 3.33756 -0.322739 -1.91142
rclavicle 4.37326e-015 -5.1684e-015
rhumerus -46.0038 4.87979 -105.459
rradius 102.214
rwrist 30.1067
rhand -36.2877 12.7405
rfingers 7.12502
rthumb -9.38745 -17.0305
lclavicle 4.37326e-015 -5.1684e-015
lhumerus -62.1372 -19.7558 103.699
lradius 108.856
lwrist 8.50637
lhand -27.4477 51.6672
lfingers 7.12502
lthumb -0.852452 1161.65
rfemur -24.7295 0.12653 18.3939
rtibia 28.6861
rfoot -12.5124 -4.73805
rtoes -13.7516
lfemur -6.07307 0.247034 -22.1535
ltibia 34.0237
lfoot 343.065 5.39396
ltoes -7.29195
2176
root 16.5568 17.4225 -0.127883 -401.027 268.333 -316.433
lowerback -4.15869 2.51265 1.72825
upperback 2.90277 3.15807 1.30049
thorax 5.3598 1.59137 0.656592
lowerneck -3.96335 -0.631258 1.97743
upperneck 7.96328 -0.688392 -4.35559
head 3.24784 -0.469628 -1.80576
rclavicle 7.70291e-015 9.14409e-015
rhumerus -46.2934 3.76235 -105.015
rradius 102.512
rwrist 29.9457
rhand -37.3605 12.4795
rfingers 7.12502
rthumb -10.4225 -17.2422
lclavicle 7.70291e-015 9.14409e-015
lhumerus -59.994 -19.9001 103.459
lradius 109.264
lwrist 8.72003
lhand -27.6262 51.8015
lfingers 7.12502
lthumb -1.02494 1161.78
rfemur -24.2293 1.91659 17.9576
rtibia 29.4576
rfoot -13.5325 -8.91989
rtoes -10.1167
lfemur -5.51642 -0.178202 -22.4169
ltibia 32.3271
lfoot 342.456 6.28603
ltoes -7.43455
2177
root 16.6804 17.4054 -0.0837533 -450.462 268.936 -266.968
lowerback -4.06694 2.23586 1.82473
upperback 2.87399 2.79 1.21491
thorax 5.28445 1.41471 0.476631
lowerneck -3.89088 -0.823128 1.64372
upperneck 7.92566 -0.945589 -4.06129
head 3.21057 -0.594894 -1.65593
rclavicle -8.64713e-015 8.34896e-015
rhumerus -46.696 2.76174 -104.548
rradius 102.696
rwrist 29.6105
rhand -38.1355 12.5732
rfingers 7.12502
rthumb -11.17 -17.1095
lclavicle -8.64713e-015 8.34896e-015
lhumerus -57.7669 -19.866 103.24
lradius 109.419
lwrist 8.56497
lhand -27.8424 51.799
lfingers 7.12502
lthumb -1.23366 1161.78
rfemur -24.2044 1.71067 17.6364
rtibia 31.1911
rfoot -13.884 -10.3661
rtoes -9.10559
lfemur -5.31363 -1.00402 -22.7491
ltibia 31.0047
lfoot 341.806 6.72957
ltoes -6.39312
2178
root 16.8065 17.387 -0.0407748 -503.29 268.322 -213.979
lowerback -4.08625 1.95961 1.94656
upperback 2.79656 2.42307 1.07252
thorax 5.22273 1.24072 0.227994
lowerneck -3.80302 -1.0246 1.32671
upperneck 7.87436 -1.21986 -3.72935
head 3.16744 -0.726368 -1.4976
rclavicle 1.78906e-014 1.43125e-014
rhumerus -47.0934 1.7612 -104.042
rradius 102.859
rwrist 29.1552
rhand -38.7289 12.9257
rfingers 7.12502
rthumb -11.7422 -16.7252
lclavicle 1.78906e-014 1.43125e-014
lhumerus -55.4346 -19.7818 102.988
lradius 109.34
lwrist 8.23884
lhand -27.8474 51.4424
lfingers 7.12502
lthumb -1.23851 1161.42
rfemur -24.64 0.556698 17.4067
rtibia 33.8687
rfoot -14.7665 -10.1869
rtoes -7.21712
lfemur -5.49634 -1.84395 -22.9916
ltibia 30.1621
lfoot 341.024 6.62326
ltoes -5.8726
2179
root 16.9257 17.3691 -0.00230062 -519.548 267.405 -197.484
lowerback -4.24672 1.78984 2.11699
upperback 2.69807 2.19736 0.833421
thorax 5.22445 1.14054 -0.130923
lowerneck -3.63194 -1.171 1.44179
upperneck 7.76466 -1.43133 -3.64034
head 3.09077 -0.821793 -1.49199
rclavicle -3.74709e-014 -5.56597e-015
rhumerus -47.4591 0.706382 -103.556
rradius 102.926
rwrist 28.9393
rhand -39.2419 13.066
rfingers 7.12502
rthumb -12.2369 -16.556
lclavicle -3.74709e-014 -5.56597e-015
lhumerus -53.105 -19.6663 102.687
lradius 109.135
lwrist 7.88112
lhand -27.628 51.0178
lfingers 7.12502
lthumb -1.02663 1161
rfemur -25.3916 0.124661 17.2737
rtibia 37.4045
rfoot -15.2574 -9.86013
rtoes -7.88618
lfemur -5.87771 -2.0151 -23.0639
ltibia 29.5975
lfoot 340.188 6.01195
ltoes -7.18136
2180
root 17.0392 17.3515 0.0299245 -528.684 266.683 -188.035
lowerback -4.56221 1.70341 2.11441
upperback 2.61795 2.09456 0.50729
thorax 5.33065 1.09752 -0.467704
lowerneck -3.54533 -1.30477 1.50395
upperneck 7.70935 -1.63325 -3.37966
head 3.04987 -0.908793 -1.42204
rclavicle 2.55438e-014 -4.57205e-015
rhumerus -47.879 -0.3075 -103.161
rradius 102.982
rwrist 29.0614
rhand -39.6735 12.7203
rfingers 7.12502
rthumb -12.653 -16.8764
lclavicle 2.55438e-014 -4.57205e-015
lhumerus -50.7978 -19.5895 102.445
lradius 108.845
lwrist 7.71248
lhand -27.8951 51.1569
lfingers 7.12502
lthumb -1.28456 1161.13
rfemur -26.1131 -0.236595 17.1297
rtibia 40.9435
rfoot -15.8187 -9.65279
rtoes -7.29867
lfemur -6.38861 -1.28055 -23.1254
ltibia 29.169
lfoot 339.295 4.93845
ltoes -9.32384
2181
root 17.1498 17.3311 0.0582003 -536.89 265.984 -179.488
lowerback -4.95588 1.61165 1.88625
upperback 2.56664 2.00124 0.136706
thorax 5.50414 1.05234 -0.722045
lowerneck -3.64285 -1.46566 0.965803
upperneck 7.81488 -1.87227 -2.57129
head 3.10514 -1.01395 -1.07439
rclavicle 2.5022e-014 5.76476e-015
rhumerus -48.3831 -1.18469 -102.768
rradius 103.132
rwrist 29.381
rhand -39.854 12.2638
rfingers 7.12502
rthumb -12.827 -17.3221
lclavicle 2.5022e-014 5.76476e-015
lhumerus -48.4835 -19.4755 102.328
lradius 108.491
lwrist 7.85315
lhand -28.4727 51.6919
lfingers 7.12502
lthumb -1.84246 1161.66
rfemur -26.5996 -0.717934 16.8616
rtibia 44.0797
rfoot -16.0299 -9.93102
rtoes -5.7608
lfemur -6.97196 0.0447324 -23.3392
ltibia 28.8006
lfoot 338.545 3.48297
ltoes -10.4244
2182
root 17.2563 17.3102 0.0843259 -544.14 265.252 -171.953
lowerback -5.28753 1.5061 1.51553
upperback 2.49527 1.90585 -0.275077
thorax 5.61728 1.00083 -0.943307
lowerneck -3.62253 -1.63293 0.695501
upperneck 7.8626 -2.11916 -2.03053
head 3.11913 -1.12419 -0.860498
rclavicle 1.50331e-014 4.57205e-015
rhumerus -48.9093 -1.8876 -102.379
rradius 103.204
rwrist 29.5332
rhand -40.0055 12.1532
rfingers 7.12502
rthumb -12.9731 -17.4234
lclavicle 1.50331e-014 4.57205e-015
lhumerus -46.3224 -19.2616 102.246
lradius 108.246
lwrist 8.21897
lhand -28.5392 51.9301
lfingers 7.12502
lthumb -1.90671 1161.9
rfemur -26.7857 -1.45584 16.48
rtibia 47.039
rfoot -16.1301 -10.3536
rtoes -3.47771
lfemur -7.4564 1.50198 -23.7794
ltibia 28.3738
lfoot 338.055 1.74908
ltoes -9.93429
2183
root 17.3599 17.2933 0.108362 -550.176 264.548 -165.795
lowerback -5.44075 1.413 1.10183
upperback 2.45292 1.83391 -0.696028
thorax 5.65874 0.958436 -1.15288
lowerneck -3.5141 -1.78515 0.606291
upperneck 7.81133 -2.34091 -1.72156
head 3.08148 -1.22465 -0.750494
rclavicle 2.97929e-014 -3.8763e-015
rhumerus -49.3928 -2.38989 -102.065
rradius 103.146
rwrist 29.3799
rhand -40.4326 12.4455
rfingers 7.12502
rthumb -13.3848 -17.1046
lclavicle 2.97929e-014 -3.8763e-015
lhumerus -44.3822 -19.0344 102.176
lradius 108.14
lwrist 8.47568
lhand -28.3595 51.9485
lfingers 7.12502
lthumb -1.73307 1161.92
rfemur -26.6867 -2.28845 16.0904
rtibia 50.0235
rfoot -16.2821 -10.9624
rtoes -1.01309
lfemur -7.6815 2.89392 -24.352
ltibia 27.8386
lfoot 337.62 -0.0600165
ltoes -8.13187
